<svg xmlns="http://www.w3.org/2000/svg" viewBox="262 79 1831 1831" width="1831" height="1831"><path fill="#000000" fill-rule="evenodd" d="M382,953 L382,576.0 A377.0,377.0 0 0 1 1136,576.0 L1136,953 Z M382,1036 L1136,1036 L1136,1790 L759.0,1790 A377.0,377.0 0 0 1 382,1413.0 Z M1219,1036 L1973,1036 L1973,1413.0 A377.0,377.0 0 0 1 1596.0,1790 L1219,1790 Z M762.055 683.7449999999999C669.935 683.7449999999999 611.185 713.8249999999999 611.185 763.645C611.185 813.4649999999999 669.935 843.0749999999999 762.055 843.0749999999999C854.175 843.0749999999999 912.4549999999999 813.4649999999999 912.4549999999999 763.645C912.4549999999999 713.8249999999999 854.175 683.7449999999999 762.055 683.7449999999999ZM762.055 740.6149999999999C812.815 740.6149999999999 837.255 746.7249999999999 837.255 763.645C837.255 780.5649999999999 812.815 787.145 762.055 787.145C711.295 787.145 686.855 780.5649999999999 686.855 763.645C686.855 746.7249999999999 711.295 740.6149999999999 762.055 740.6149999999999ZM687.325 507.9649999999999C622.935 507.9649999999999 577.345 540.865 577.345 587.865C577.345 635.3349999999999 622.935 667.295 687.325 667.295C751.7149999999999 667.295 797.305 635.3349999999999 797.305 587.865C797.305 540.865 751.7149999999999 507.9649999999999 687.325 507.9649999999999ZM687.325 562.4849999999999C709.415 562.4849999999999 724.4549999999999 570.0049999999999 724.4549999999999 587.865C724.4549999999999 605.2549999999999 709.415 612.775 687.325 612.775C665.235 612.775 650.1949999999999 605.2549999999999 650.1949999999999 587.865C650.1949999999999 570.0049999999999 665.235 562.4849999999999 687.325 562.4849999999999ZM832.085 401.74499999999995V678.5749999999999H907.755V615.5949999999999H960.395V554.4949999999999H907.755V519.2449999999999H960.395V457.67499999999995H907.755V401.74499999999995ZM649.255 398.92499999999995V438.87499999999994H557.605V497.62499999999994H816.575V438.87499999999994H724.925V398.92499999999995Z M880.495 1184.5700000000002V1625.43H952.405V1184.5700000000002ZM787.905 1193.03V1347.19H755.005C762.525 1311.94 765.345 1273.87 765.345 1232.98H592.385V1292.67H692.495C691.555 1306.77 689.675 1320.4 686.855 1333.09L569.825 1338.26L577.815 1401.24L665.705 1391.84C646.435 1428.5 614.9449999999999 1459.99 565.595 1489.6L607.895 1541.77C672.755 1502.76 712.235 1458.58 735.265 1406.88H787.905V1607.57H858.405V1193.03Z M1528.3200000000002 1281.8600000000001C1555.1100000000001 1281.8600000000001 1572.03 1310.53 1572.03 1372.1C1572.03 1434.61 1555.1100000000001 1463.28 1528.3200000000002 1463.28C1502.0 1463.28 1484.6100000000001 1434.61 1484.6100000000001 1372.1C1484.6100000000001 1310.53 1502.0 1281.8600000000001 1528.3200000000002 1281.8600000000001ZM1704.1 1183.63V1337.79H1642.06C1632.19 1260.24 1587.07 1212.77 1528.3200000000002 1212.77C1461.58 1212.77 1412.23 1274.34 1412.23 1372.1C1412.23 1470.8 1461.58 1532.37 1528.3200000000002 1532.37C1588.95 1532.37 1635.01 1481.61 1643.0 1398.42H1704.1V1626.37H1779.77V1183.63Z"/><path fill="#000000" d="M1705.745 400.57000000000005V841.43H1781.885V400.57000000000005ZM1435.4950000000001 445.22V504.91H1572.7350000000001C1563.335 597.5 1519.625 659.07 1410.115 711.71L1449.595 771.4C1611.275 693.85 1650.285 584.34 1650.285 445.22Z"/></svg>